<svg xmlns="http://www.w3.org/2000/svg" viewBox="0 0 640 640" role="img" aria-labelledby="title desc">
<title id="title">Dust &amp; Gasoline by Red Dirt Revival</title><desc id="desc">Static demo cover art derived from supplied brief: A beat-up leather steering wheel framed against a dusty Oklahoma highway extending into an endless red-dirt horizon, with a faded roadside billbo…</desc>
<rect width="640" height="640" fill="#101217"/>
<rect x="18" y="18" width="604" height="604" fill="none" stroke="#56c2a3" stroke-width="2" opacity=".75"/>
<g transform="rotate(10 320 320)"><circle cx="190" cy="285" r="70" fill="none" stroke="#56c2a3" stroke-opacity="0.55" stroke-width="2"/><circle cx="190" cy="285" r="108" fill="none" stroke="#e6e2d3" stroke-opacity="0.49" stroke-width="3"/><circle cx="190" cy="285" r="146" fill="none" stroke="#d664a2" stroke-opacity="0.43" stroke-width="4"/><circle cx="190" cy="285" r="184" fill="none" stroke="#56c2a3" stroke-opacity="0.37" stroke-width="2"/><circle cx="190" cy="285" r="222" fill="none" stroke="#e6e2d3" stroke-opacity="0.31" stroke-width="3"/><circle cx="190" cy="285" r="260" fill="none" stroke="#d664a2" stroke-opacity="0.25" stroke-width="4"/><circle cx="190" cy="285" r="298" fill="none" stroke="#56c2a3" stroke-opacity="0.19" stroke-width="2"/><circle cx="190" cy="285" r="336" fill="none" stroke="#e6e2d3" stroke-opacity="0.13" stroke-width="3"/><path d="M-20 430 C145 330 219 493 384 377 C492 302 532 199 676 258" fill="none" stroke="#56c2a3" stroke-width="44" stroke-linecap="round" opacity=".18"/><path d="M-25 252 C145 169 241 240 356 179 C488 109 541 128 672 78" fill="none" stroke="#e6e2d3" stroke-width="18" stroke-linecap="round" opacity=".34"/></g>
<g opacity=".9"><rect x="28" y="462" width="22" height="149" fill="#56c2a3" opacity="0.35"/><rect x="74" y="459" width="22" height="133" fill="#e6e2d3" opacity="0.47"/><rect x="120" y="458" width="22" height="141" fill="#d664a2" opacity="0.59"/><rect x="166" y="489" width="22" height="81" fill="#56c2a3" opacity="0.71"/><rect x="212" y="473" width="22" height="147" fill="#e6e2d3" opacity="0.35"/><rect x="258" y="465" width="22" height="68" fill="#d664a2" opacity="0.47"/><rect x="304" y="461" width="22" height="141" fill="#56c2a3" opacity="0.59"/><rect x="350" y="491" width="22" height="129" fill="#e6e2d3" opacity="0.71"/><rect x="396" y="474" width="22" height="139" fill="#d664a2" opacity="0.35"/><rect x="442" y="497" width="22" height="80" fill="#56c2a3" opacity="0.47"/><rect x="488" y="477" width="22" height="147" fill="#e6e2d3" opacity="0.59"/><rect x="534" y="467" width="22" height="132" fill="#d664a2" opacity="0.71"/><rect x="580" y="462" width="22" height="141" fill="#56c2a3" opacity="0.35"/></g>
<rect x="42" y="42" width="556" height="190" fill="#101217" opacity=".82"/>
<text x="48" y="78" fill="#56c2a3" font-family="Arial Black, Manrope, Arial, sans-serif" font-size="15" letter-spacing="4">FUSE ARCHIVE / 2013</text>
<text x="48" y="136" fill="#d664a2" font-family="Arial Black, Manrope, Arial, sans-serif" font-size="42" letter-spacing="-1">Red Dirt Revival</text>
<text x="48" y="190" fill="#e6e2d3" font-family="Georgia, serif" font-size="33" font-style="italic">Dust &amp; Gasoline</text>
<text x="48" y="544" fill="#d664a2" font-family="Arial, sans-serif" font-size="17" letter-spacing="2">TEXAS / COUNTRY / RED</text>
<text x="48" y="586" fill="#56c2a3" font-family="Arial, sans-serif" font-size="12" letter-spacing="3">DEMO CONCEPT COVER · SUPPLIED ARCHIVE DATA</text>
</svg>