<svg xmlns="http://www.w3.org/2000/svg" viewBox="0 0 640 640" role="img" aria-labelledby="title desc">
<title id="title">Peach Motel by Strawberry Sundown</title><desc id="desc">Static demo cover art derived from supplied brief: A quirky, Wes Anderson-esque pastel photograph of a vintage 1970s yellow camper van parked beside a field of blooming sunflowers under a peach-pi…</desc>
<rect width="640" height="640" fill="#140f16"/>
<rect x="18" y="18" width="604" height="604" fill="none" stroke="#e6476d" stroke-width="2" opacity=".75"/>
<g transform="rotate(-10 320 320)"><circle cx="362" cy="276" r="70" fill="none" stroke="#e6476d" stroke-opacity="0.55" stroke-width="2"/><circle cx="362" cy="276" r="108" fill="none" stroke="#ffd166" stroke-opacity="0.49" stroke-width="3"/><circle cx="362" cy="276" r="146" fill="none" stroke="#ffffff" stroke-opacity="0.43" stroke-width="4"/><circle cx="362" cy="276" r="184" fill="none" stroke="#e6476d" stroke-opacity="0.37" stroke-width="2"/><circle cx="362" cy="276" r="222" fill="none" stroke="#ffd166" stroke-opacity="0.31" stroke-width="3"/><circle cx="362" cy="276" r="260" fill="none" stroke="#ffffff" stroke-opacity="0.25" stroke-width="4"/><circle cx="362" cy="276" r="298" fill="none" stroke="#e6476d" stroke-opacity="0.19" stroke-width="2"/><circle cx="362" cy="276" r="336" fill="none" stroke="#ffd166" stroke-opacity="0.13" stroke-width="3"/><path d="M-20 430 C145 330 219 493 384 377 C492 302 532 199 676 258" fill="none" stroke="#e6476d" stroke-width="44" stroke-linecap="round" opacity=".18"/><path d="M-25 252 C145 169 241 240 356 179 C488 109 541 128 672 78" fill="none" stroke="#ffd166" stroke-width="18" stroke-linecap="round" opacity=".34"/></g>
<g opacity=".9"><rect x="28" y="482" width="22" height="130" fill="#e6476d" opacity="0.35"/><rect x="74" y="469" width="22" height="140" fill="#ffd166" opacity="0.47"/><rect x="120" y="495" width="22" height="145" fill="#ffffff" opacity="0.59"/><rect x="166" y="476" width="22" height="147" fill="#e6476d" opacity="0.71"/><rect x="212" y="466" width="22" height="148" fill="#ffd166" opacity="0.35"/><rect x="258" y="461" width="22" height="85" fill="#ffffff" opacity="0.47"/><rect x="304" y="459" width="22" height="149" fill="#e6476d" opacity="0.59"/><rect x="350" y="458" width="22" height="133" fill="#ffd166" opacity="0.71"/><rect x="396" y="457" width="22" height="77" fill="#ffffff" opacity="0.35"/><rect x="442" y="489" width="22" height="145" fill="#e6476d" opacity="0.47"/><rect x="488" y="473" width="22" height="131" fill="#ffd166" opacity="0.59"/><rect x="534" y="465" width="22" height="76" fill="#ffffff" opacity="0.71"/><rect x="580" y="482" width="22" height="145" fill="#e6476d" opacity="0.35"/></g>
<rect x="42" y="42" width="556" height="190" fill="#140f16" opacity=".82"/>
<text x="48" y="78" fill="#e6476d" font-family="Arial Black, Manrope, Arial, sans-serif" font-size="15" letter-spacing="4">FUSE ARCHIVE / 2018</text>
<text x="48" y="136" fill="#ffffff" font-family="Arial Black, Manrope, Arial, sans-serif" font-size="42" letter-spacing="-1">Strawberry Sundown</text>
<text x="48" y="190" fill="#ffd166" font-family="Georgia, serif" font-size="33" font-style="italic">Peach Motel</text>
<text x="48" y="544" fill="#ffffff" font-family="Arial, sans-serif" font-size="17" letter-spacing="2">LO / FI / ALT</text>
<text x="48" y="586" fill="#e6476d" font-family="Arial, sans-serif" font-size="12" letter-spacing="3">DEMO CONCEPT COVER · SUPPLIED ARCHIVE DATA</text>
</svg>