<svg xmlns="http://www.w3.org/2000/svg" viewBox="0 0 640 640" role="img" aria-labelledby="title desc">
<title id="title">Concrete Youth by The Riot Act</title><desc id="desc">Static demo cover art derived from supplied brief: A xerox-distorted, high-contrast collage of torn protest flyers, safety pins, and a roaring singer clutching a taped-up microphone, slashed acros…</desc>
<rect width="640" height="640" fill="#0f1512"/>
<rect x="18" y="18" width="604" height="604" fill="none" stroke="#9ccf6b" stroke-width="2" opacity=".75"/>
<g transform="rotate(-9 320 320)"><circle cx="443" cy="286" r="70" fill="none" stroke="#9ccf6b" stroke-opacity="0.55" stroke-width="2"/><circle cx="443" cy="286" r="108" fill="none" stroke="#f5e8c8" stroke-opacity="0.49" stroke-width="3"/><circle cx="443" cy="286" r="146" fill="none" stroke="#d67b42" stroke-opacity="0.43" stroke-width="4"/><circle cx="443" cy="286" r="184" fill="none" stroke="#9ccf6b" stroke-opacity="0.37" stroke-width="2"/><circle cx="443" cy="286" r="222" fill="none" stroke="#f5e8c8" stroke-opacity="0.31" stroke-width="3"/><circle cx="443" cy="286" r="260" fill="none" stroke="#d67b42" stroke-opacity="0.25" stroke-width="4"/><circle cx="443" cy="286" r="298" fill="none" stroke="#9ccf6b" stroke-opacity="0.19" stroke-width="2"/><circle cx="443" cy="286" r="336" fill="none" stroke="#f5e8c8" stroke-opacity="0.13" stroke-width="3"/><path d="M-20 430 C145 330 219 493 384 377 C492 302 532 199 676 258" fill="none" stroke="#9ccf6b" stroke-width="44" stroke-linecap="round" opacity=".18"/><path d="M-25 252 C145 169 241 240 356 179 C488 109 541 128 672 78" fill="none" stroke="#f5e8c8" stroke-width="18" stroke-linecap="round" opacity=".34"/></g>
<g opacity=".9"><rect x="28" y="513" width="22" height="134" fill="#9ccf6b" opacity="0.35"/><rect x="74" y="517" width="22" height="142" fill="#f5e8c8" opacity="0.47"/><rect x="120" y="487" width="22" height="82" fill="#d67b42" opacity="0.59"/><rect x="166" y="472" width="22" height="84" fill="#9ccf6b" opacity="0.71"/><rect x="212" y="464" width="22" height="69" fill="#f5e8c8" opacity="0.35"/><rect x="258" y="460" width="22" height="125" fill="#d67b42" opacity="0.47"/><rect x="304" y="490" width="22" height="121" fill="#9ccf6b" opacity="0.59"/><rect x="350" y="505" width="22" height="71" fill="#f5e8c8" opacity="0.71"/><rect x="396" y="513" width="22" height="142" fill="#d67b42" opacity="0.35"/><rect x="442" y="485" width="22" height="66" fill="#9ccf6b" opacity="0.47"/><rect x="488" y="471" width="22" height="140" fill="#f5e8c8" opacity="0.59"/><rect x="534" y="496" width="22" height="129" fill="#d67b42" opacity="0.71"/><rect x="580" y="513" width="22" height="75" fill="#9ccf6b" opacity="0.35"/></g>
<rect x="42" y="42" width="556" height="190" fill="#0f1512" opacity=".82"/>
<text x="48" y="78" fill="#9ccf6b" font-family="Arial Black, Manrope, Arial, sans-serif" font-size="15" letter-spacing="4">FUSE ARCHIVE / 2017</text>
<text x="48" y="136" fill="#d67b42" font-family="Arial Black, Manrope, Arial, sans-serif" font-size="42" letter-spacing="-1">The Riot Act</text>
<text x="48" y="190" fill="#f5e8c8" font-family="Georgia, serif" font-size="33" font-style="italic">Concrete Youth</text>
<text x="48" y="544" fill="#d67b42" font-family="Arial, sans-serif" font-size="17" letter-spacing="2">RIOT / GRRRL / ANARCHO</text>
<text x="48" y="586" fill="#9ccf6b" font-family="Arial, sans-serif" font-size="12" letter-spacing="3">DEMO CONCEPT COVER · SUPPLIED ARCHIVE DATA</text>
</svg>