<svg xmlns="http://www.w3.org/2000/svg" width="480" height="100" viewBox="0 0 480 100">
  <rect width="480" height="100" fill="transparent"/>
  <rect x="0" y="18" width="10" height="58" rx="5" fill="white" opacity="0.3"/><rect x="12" y="53" width="10" height="30" rx="5" fill="white" opacity="0.3"/><rect x="24" y="18" width="10" height="79" rx="5" fill="white" opacity="0.3"/><rect x="36" y="13" width="10" height="29" rx="5" fill="white" opacity="0.3"/><rect x="48" y="38" width="10" height="71" rx="5" fill="white" opacity="0.3"/><rect x="60" y="46" width="10" height="74" rx="5" fill="white" opacity="0.3"/><rect x="72" y="56" width="10" height="50" rx="5" fill="white" opacity="0.3"/><rect x="84" y="48" width="10" height="69" rx="5" fill="white" opacity="0.3"/><rect x="96" y="11" width="10" height="41" rx="5" fill="white" opacity="0.3"/><rect x="108" y="42" width="10" height="67" rx="5" fill="white" opacity="0.3"/><rect x="120" y="35" width="10" height="80" rx="5" fill="white" opacity="0.3"/><rect x="132" y="14" width="10" height="30" rx="5" fill="white" opacity="0.3"/><rect x="144" y="45" width="10" height="45" rx="5" fill="white" opacity="0.3"/><rect x="156" y="55" width="10" height="48" rx="5" fill="white" opacity="0.3"/><rect x="168" y="27" width="10" height="53" rx="5" fill="white" opacity="0.3"/><rect x="180" y="27" width="10" height="35" rx="5" fill="white" opacity="0.3"/><rect x="192" y="44" width="10" height="58" rx="5" fill="white" opacity="0.3"/><rect x="204" y="54" width="10" height="73" rx="5" fill="white" opacity="0.3"/><rect x="216" y="58" width="10" height="45" rx="5" fill="white" opacity="0.3"/><rect x="228" y="57" width="10" height="73" rx="5" fill="white" opacity="0.3"/><rect x="240" y="54" width="10" height="59" rx="5" fill="white" opacity="0.3"/><rect x="252" y="53" width="10" height="67" rx="5" fill="white" opacity="0.3"/><rect x="264" y="22" width="10" height="33" rx="5" fill="white" opacity="0.3"/><rect x="276" y="21" width="10" height="80" rx="5" fill="white" opacity="0.3"/><rect x="288" y="28" width="10" height="40" rx="5" fill="white" opacity="0.3"/><rect x="300" y="14" width="10" height="42" rx="5" fill="white" opacity="0.3"/><rect x="312" y="18" width="10" height="60" rx="5" fill="white" opacity="0.3"/><rect x="324" y="24" width="10" height="23" rx="5" fill="white" opacity="0.3"/><rect x="336" y="27" width="10" height="46" rx="5" fill="white" opacity="0.3"/><rect x="348" y="13" width="10" height="74" rx="5" fill="white" opacity="0.3"/><rect x="360" y="36" width="10" height="28" rx="5" fill="white" opacity="0.3"/><rect x="372" y="29" width="10" height="24" rx="5" fill="white" opacity="0.3"/><rect x="384" y="29" width="10" height="47" rx="5" fill="white" opacity="0.3"/><rect x="396" y="46" width="10" height="28" rx="5" fill="white" opacity="0.3"/><rect x="408" y="41" width="10" height="23" rx="5" fill="white" opacity="0.3"/><rect x="420" y="58" width="10" height="62" rx="5" fill="white" opacity="0.3"/><rect x="432" y="56" width="10" height="28" rx="5" fill="white" opacity="0.3"/><rect x="444" y="57" width="10" height="80" rx="5" fill="white" opacity="0.3"/><rect x="456" y="12" width="10" height="25" rx="5" fill="white" opacity="0.3"/><rect x="468" y="24" width="10" height="79" rx="5" fill="white" opacity="0.3"/>
</svg>