<svg xmlns="http://www.w3.org/2000/svg" width="480" height="100" viewBox="0 0 480 100">
  <rect width="480" height="100" fill="transparent"/>
  <rect x="0" y="10" width="10" height="55" rx="5" fill="white" opacity="0.3"/><rect x="12" y="41" width="10" height="44" rx="5" fill="white" opacity="0.3"/><rect x="24" y="43" width="10" height="30" rx="5" fill="white" opacity="0.3"/><rect x="36" y="60" width="10" height="65" rx="5" fill="white" opacity="0.3"/><rect x="48" y="60" width="10" height="77" rx="5" fill="white" opacity="0.3"/><rect x="60" y="15" width="10" height="33" rx="5" fill="white" opacity="0.3"/><rect x="72" y="55" width="10" height="30" rx="5" fill="white" opacity="0.3"/><rect x="84" y="28" width="10" height="29" rx="5" fill="white" opacity="0.3"/><rect x="96" y="43" width="10" height="61" rx="5" fill="white" opacity="0.3"/><rect x="108" y="49" width="10" height="61" rx="5" fill="white" opacity="0.3"/><rect x="120" y="52" width="10" height="36" rx="5" fill="white" opacity="0.3"/><rect x="132" y="10" width="10" height="31" rx="5" fill="white" opacity="0.3"/><rect x="144" y="17" width="10" height="71" rx="5" fill="white" opacity="0.3"/><rect x="156" y="16" width="10" height="64" rx="5" fill="white" opacity="0.3"/><rect x="168" y="24" width="10" height="62" rx="5" fill="white" opacity="0.3"/><rect x="180" y="29" width="10" height="23" rx="5" fill="white" opacity="0.3"/><rect x="192" y="26" width="10" height="22" rx="5" fill="white" opacity="0.3"/><rect x="204" y="35" width="10" height="26" rx="5" fill="white" opacity="0.3"/><rect x="216" y="18" width="10" height="35" rx="5" fill="white" opacity="0.3"/><rect x="228" y="54" width="10" height="68" rx="5" fill="white" opacity="0.3"/><rect x="240" y="15" width="10" height="62" rx="5" fill="white" opacity="0.3"/><rect x="252" y="31" width="10" height="30" rx="5" fill="white" opacity="0.3"/><rect x="264" y="46" width="10" height="51" rx="5" fill="white" opacity="0.3"/><rect x="276" y="26" width="10" height="64" rx="5" fill="white" opacity="0.3"/><rect x="288" y="12" width="10" height="22" rx="5" fill="white" opacity="0.3"/><rect x="300" y="29" width="10" height="48" rx="5" fill="white" opacity="0.3"/><rect x="312" y="52" width="10" height="45" rx="5" fill="white" opacity="0.3"/><rect x="324" y="35" width="10" height="57" rx="5" fill="white" opacity="0.3"/><rect x="336" y="22" width="10" height="74" rx="5" fill="white" opacity="0.3"/><rect x="348" y="41" width="10" height="66" rx="5" fill="white" opacity="0.3"/><rect x="360" y="44" width="10" height="78" rx="5" fill="white" opacity="0.3"/><rect x="372" y="47" width="10" height="70" rx="5" fill="white" opacity="0.3"/><rect x="384" y="16" width="10" height="74" rx="5" fill="white" opacity="0.3"/><rect x="396" y="15" width="10" height="47" rx="5" fill="white" opacity="0.3"/><rect x="408" y="43" width="10" height="34" rx="5" fill="white" opacity="0.3"/><rect x="420" y="44" width="10" height="44" rx="5" fill="white" opacity="0.3"/><rect x="432" y="28" width="10" height="47" rx="5" fill="white" opacity="0.3"/><rect x="444" y="60" width="10" height="73" rx="5" fill="white" opacity="0.3"/><rect x="456" y="39" width="10" height="49" rx="5" fill="white" opacity="0.3"/><rect x="468" y="13" width="10" height="29" rx="5" fill="white" opacity="0.3"/>
</svg>