<svg xmlns="http://www.w3.org/2000/svg" style="display:none">
  <defs>
    <linearGradient id="wfg" x1="0" y1="0" x2="1" y2="0">
      <stop offset="0%" stop-color="currentColor" stop-opacity="0.3"/>
      <stop offset="50%" stop-color="currentColor" stop-opacity="1"/>
      <stop offset="100%" stop-color="currentColor" stop-opacity="0.3"/>
    </linearGradient>
  </defs>
  <g id="wf-1"><path d="M0,20 Q5,5 10,15 T20,10 T30,18 T40,8 T50,20 T60,5 T70,15 T80,10 T90,18 T100,12" fill="none" stroke="url(#wfg)" stroke-width="2"/></g>
  <g id="wf-2"><path d="M0,18 Q5,20 10,5 T20,15 T30,20 T40,5 T50,10 T60,20 T70,8 T80,18 T90,5 T100,15" fill="none" stroke="url(#wfg)" stroke-width="2"/></g>
  <g id="wf-3"><path d="M0,12 Q5,20 10,8 T20,18 T30,5 T40,20 T50,10 T60,15 T70,20 T80,5 T90,15 T100,8" fill="none" stroke="url(#wfg)" stroke-width="2"/></g>
  <g id="wf-4"><path d="M0,20 Q5,8 10,20 T20,5 T30,18 T40,5 T50,20 T60,8 T70,15 T80,5 T90,20 T100,8" fill="none" stroke="url(#wfg)" stroke-width="2"/></g>
  <g id="wf-5"><path d="M0,10 Q5,18 10,5 T20,20 T30,8 T40,18 T50,5 T60,15 T70,20 T80,8 T90,18 T100,5" fill="none" stroke="url(#wfg)" stroke-width="2"/></g>
  <g id="wf-6"><path d="M0,15 Q5,5 10,20 T20,8 T30,18 T40,5 T50,15 T60,20 T70,5 T80,18 T90,8 T100,20" fill="none" stroke="url(#wfg)" stroke-width="2"/></g>
  <g id="wf-7"><path d="M0,5 Q5,15 10,20 T20,5 T30,15 T40,20 T50,8 T60,18 T70,5 T80,15 T90,20 T100,5" fill="none" stroke="url(#wfg)" stroke-width="2"/></g>
  <g id="wf-8"><path d="M0,20 Q5,10 10,5 T20,20 T30,10 T40,5 T50,20 T60,10 T70,5 T80,20 T90,10 T100,5" fill="none" stroke="url(#wfg)" stroke-width="2"/></g>
  <g id="wf-9"><path d="M0,8 Q5,20 10,12 T20,5 T30,18 T40,10 T50,20 T60,8 T70,15 T80,5 T90,18 T100,8" fill="none" stroke="url(#wfg)" stroke-width="2"/></g>
  <g id="wf-10"><path d="M0,18 Q5,5 10,15 T20,20 T30,5 T40,12 T50,20 T60,5 T70,18 T80,8 T90,20 T100,5" fill="none" stroke="url(#wfg)" stroke-width="2"/></g>
  <g id="wf-11"><path d="M0,12 Q5,5 10,20 T20,12 T30,5 T40,20 T50,12 T60,5 T70,20 T80,12 T90,5 T100,20" fill="none" stroke="url(#wfg)" stroke-width="2"/></g>
  <g id="wf-12"><path d="M0,5 Q5,20 10,8 T20,18 T30,5 T40,20 T50,8 T60,18 T70,5 T80,20 T90,8 T100,18" fill="none" stroke="url(#wfg)" stroke-width="2"/></g>
  <g id="wf-13"><path d="M0,20 Q5,8 10,18 T20,5 T30,20 T40,8 T50,18 T60,5 T70,20 T80,8 T90,18 T100,5" fill="none" stroke="url(#wfg)" stroke-width="2"/></g>
  <g id="wf-14"><path d="M0,10 Q5,20 10,5 T20,15 T30,20 T40,5 T50,10 T60,20 T70,5 T80,15 T90,20 T100,10" fill="none" stroke="url(#wfg)" stroke-width="2"/></g>
  <g id="wf-15"><path d="M0,15 Q5,8 10,20 T20,10 T30,5 T40,20 T50,15 T60,8 T70,20 T80,10 T90,5 T100,15" fill="none" stroke="url(#wfg)" stroke-width="2"/></g>
  <g id="wf-16"><path d="M0,8 Q5,18 10,5 T20,20 T30,8 T40,18 T50,5 T60,20 T70,8 T80,18 T90,5 T100,20" fill="none" stroke="url(#wfg)" stroke-width="2"/></g>
  <g id="wf-17"><path d="M0,18 Q5,10 10,20 T20,5 T30,15 T40,20 T50,5 T60,18 T70,10 T80,20 T90,8 T100,15" fill="none" stroke="url(#wfg)" stroke-width="2"/></g>
  <g id="wf-18"><path d="M0,5 Q5,12 10,20 T20,8 T30,18 T40,5 T50,15 T60,20 T70,8 T80,18 T90,5 T100,20" fill="none" stroke="url(#wfg)" stroke-width="2"/></g>
  <g id="wf-19"><path d="M0,20 Q5,5 10,10 T20,20 T30,5 T40,10 T50,20 T60,5 T70,10 T80,20 T90,5 T100,10" fill="none" stroke="url(#wfg)" stroke-width="2"/></g>
  <g id="wf-20"><path d="M0,10 Q5,5 10,20 T20,5 T30,20 T40,5 T50,20 T60,5 T70,20 T80,8 T90,18 T100,5" fill="none" stroke="url(#wfg)" stroke-width="2"/></g>
  <g id="wf-21"><path d="M0,15 Q5,20 10,8 T20,15 T30,20 T40,8 T50,15 T60,20 T70,8 T80,15 T90,20 T100,8" fill="none" stroke="url(#wfg)" stroke-width="2"/></g>
  <g id="wf-22"><path d="M0,8 Q5,15 10,20 T20,8 T30,15 T40,20 T50,8 T60,15 T70,20 T80,8 T90,15 T100,20" fill="none" stroke="url(#wfg)" stroke-width="2"/></g>
  <g id="wf-23"><path d="M0,20 Q5,10 10,5 T20,20 T30,10 T40,5 T50,20 T60,10 T70,5 T80,20 T90,10 T100,5" fill="none" stroke="url(#wfg)" stroke-width="2"/></g>
  <g id="wf-24"><path d="M0,5 Q5,16 10,20 T20,5 T30,16 T40,20 T50,5 T60,16 T70,20 T80,5 T90,16 T100,20" fill="none" stroke="url(#wfg)" stroke-width="2"/></g>
  <g id="wf-25"><path d="M0,12 Q5,5 10,15 T20,8 T30,20 T40,10 T50,5 T60,18 T70,8 T80,20 T90,10 T100,5" fill="none" stroke="url(#wfg)" stroke-width="2"/></g>
  <g id="wf-26"><path d="M0,18 Q5,8 10,5 T20,18 T30,8 T40,5 T50,18 T60,8 T70,5 T80,18 T90,8 T100,5" fill="none" stroke="url(#wfg)" stroke-width="2"/></g>
  <g id="wf-27"><path d="M0,5 Q5,18 10,20 T20,5 T30,18 T40,20 T50,5 T60,18 T70,20 T80,5 T90,18 T100,20" fill="none" stroke="url(#wfg)" stroke-width="2"/></g>
  <g id="wf-28"><path d="M0,20 Q5,5 10,18 T20,5 T30,20 T40,5 T50,18 T60,5 T70,20 T80,5 T90,18 T100,5" fill="none" stroke="url(#wfg)" stroke-width="2"/></g>
  <g id="wf-29"><path d="M0,8 Q5,20 10,5 T20,15 T30,20 T40,5 T50,10 T60,20 T70,8 T80,18 T90,5 T100,20" fill="none" stroke="url(#wfg)" stroke-width="2"/></g>
  <g id="wf-30"><path d="M0,15 Q5,5 10,20 T20,8 T30,18 T40,5 T50,20 T60,8 T70,18 T80,5 T90,15 T100,10" fill="none" stroke="url(#wfg)" stroke-width="2"/></g>
</svg>
