<svg xmlns="http://www.w3.org/2000/svg" width="480" height="100" viewBox="0 0 480 100">
  <rect width="480" height="100" fill="transparent"/>
  <rect x="0" y="14" width="10" height="26" rx="5" fill="white" opacity="0.3"/><rect x="12" y="17" width="10" height="80" rx="5" fill="white" opacity="0.3"/><rect x="24" y="41" width="10" height="22" rx="5" fill="white" opacity="0.3"/><rect x="36" y="21" width="10" height="76" rx="5" fill="white" opacity="0.3"/><rect x="48" y="20" width="10" height="21" rx="5" fill="white" opacity="0.3"/><rect x="60" y="48" width="10" height="65" rx="5" fill="white" opacity="0.3"/><rect x="72" y="32" width="10" height="61" rx="5" fill="white" opacity="0.3"/><rect x="84" y="19" width="10" height="29" rx="5" fill="white" opacity="0.3"/><rect x="96" y="20" width="10" height="68" rx="5" fill="white" opacity="0.3"/><rect x="108" y="54" width="10" height="66" rx="5" fill="white" opacity="0.3"/><rect x="120" y="43" width="10" height="34" rx="5" fill="white" opacity="0.3"/><rect x="132" y="45" width="10" height="62" rx="5" fill="white" opacity="0.3"/><rect x="144" y="18" width="10" height="67" rx="5" fill="white" opacity="0.3"/><rect x="156" y="38" width="10" height="63" rx="5" fill="white" opacity="0.3"/><rect x="168" y="34" width="10" height="80" rx="5" fill="white" opacity="0.3"/><rect x="180" y="56" width="10" height="64" rx="5" fill="white" opacity="0.3"/><rect x="192" y="53" width="10" height="45" rx="5" fill="white" opacity="0.3"/><rect x="204" y="23" width="10" height="42" rx="5" fill="white" opacity="0.3"/><rect x="216" y="20" width="10" height="63" rx="5" fill="white" opacity="0.3"/><rect x="228" y="44" width="10" height="44" rx="5" fill="white" opacity="0.3"/><rect x="240" y="42" width="10" height="53" rx="5" fill="white" opacity="0.3"/><rect x="252" y="22" width="10" height="38" rx="5" fill="white" opacity="0.3"/><rect x="264" y="10" width="10" height="33" rx="5" fill="white" opacity="0.3"/><rect x="276" y="12" width="10" height="78" rx="5" fill="white" opacity="0.3"/><rect x="288" y="30" width="10" height="21" rx="5" fill="white" opacity="0.3"/><rect x="300" y="54" width="10" height="31" rx="5" fill="white" opacity="0.3"/><rect x="312" y="54" width="10" height="64" rx="5" fill="white" opacity="0.3"/><rect x="324" y="44" width="10" height="43" rx="5" fill="white" opacity="0.3"/><rect x="336" y="47" width="10" height="74" rx="5" fill="white" opacity="0.3"/><rect x="348" y="51" width="10" height="30" rx="5" fill="white" opacity="0.3"/><rect x="360" y="59" width="10" height="37" rx="5" fill="white" opacity="0.3"/><rect x="372" y="45" width="10" height="49" rx="5" fill="white" opacity="0.3"/><rect x="384" y="54" width="10" height="71" rx="5" fill="white" opacity="0.3"/><rect x="396" y="57" width="10" height="65" rx="5" fill="white" opacity="0.3"/><rect x="408" y="58" width="10" height="67" rx="5" fill="white" opacity="0.3"/><rect x="420" y="11" width="10" height="64" rx="5" fill="white" opacity="0.3"/><rect x="432" y="32" width="10" height="80" rx="5" fill="white" opacity="0.3"/><rect x="444" y="49" width="10" height="74" rx="5" fill="white" opacity="0.3"/><rect x="456" y="59" width="10" height="22" rx="5" fill="white" opacity="0.3"/><rect x="468" y="19" width="10" height="51" rx="5" fill="white" opacity="0.3"/>
</svg>