<svg xmlns="http://www.w3.org/2000/svg" width="480" height="100" viewBox="0 0 480 100">
  <rect width="480" height="100" fill="transparent"/>
  <rect x="0" y="43" width="10" height="47" rx="5" fill="white" opacity="0.3"/><rect x="12" y="16" width="10" height="79" rx="5" fill="white" opacity="0.3"/><rect x="24" y="10" width="10" height="22" rx="5" fill="white" opacity="0.3"/><rect x="36" y="39" width="10" height="66" rx="5" fill="white" opacity="0.3"/><rect x="48" y="60" width="10" height="64" rx="5" fill="white" opacity="0.3"/><rect x="60" y="56" width="10" height="53" rx="5" fill="white" opacity="0.3"/><rect x="72" y="28" width="10" height="36" rx="5" fill="white" opacity="0.3"/><rect x="84" y="57" width="10" height="40" rx="5" fill="white" opacity="0.3"/><rect x="96" y="48" width="10" height="56" rx="5" fill="white" opacity="0.3"/><rect x="108" y="60" width="10" height="76" rx="5" fill="white" opacity="0.3"/><rect x="120" y="49" width="10" height="39" rx="5" fill="white" opacity="0.3"/><rect x="132" y="17" width="10" height="75" rx="5" fill="white" opacity="0.3"/><rect x="144" y="21" width="10" height="20" rx="5" fill="white" opacity="0.3"/><rect x="156" y="57" width="10" height="37" rx="5" fill="white" opacity="0.3"/><rect x="168" y="20" width="10" height="62" rx="5" fill="white" opacity="0.3"/><rect x="180" y="49" width="10" height="39" rx="5" fill="white" opacity="0.3"/><rect x="192" y="15" width="10" height="36" rx="5" fill="white" opacity="0.3"/><rect x="204" y="22" width="10" height="76" rx="5" fill="white" opacity="0.3"/><rect x="216" y="44" width="10" height="20" rx="5" fill="white" opacity="0.3"/><rect x="228" y="13" width="10" height="52" rx="5" fill="white" opacity="0.3"/><rect x="240" y="16" width="10" height="52" rx="5" fill="white" opacity="0.3"/><rect x="252" y="52" width="10" height="28" rx="5" fill="white" opacity="0.3"/><rect x="264" y="57" width="10" height="57" rx="5" fill="white" opacity="0.3"/><rect x="276" y="26" width="10" height="21" rx="5" fill="white" opacity="0.3"/><rect x="288" y="38" width="10" height="33" rx="5" fill="white" opacity="0.3"/><rect x="300" y="27" width="10" height="20" rx="5" fill="white" opacity="0.3"/><rect x="312" y="42" width="10" height="77" rx="5" fill="white" opacity="0.3"/><rect x="324" y="56" width="10" height="72" rx="5" fill="white" opacity="0.3"/><rect x="336" y="50" width="10" height="35" rx="5" fill="white" opacity="0.3"/><rect x="348" y="53" width="10" height="26" rx="5" fill="white" opacity="0.3"/><rect x="360" y="47" width="10" height="73" rx="5" fill="white" opacity="0.3"/><rect x="372" y="11" width="10" height="38" rx="5" fill="white" opacity="0.3"/><rect x="384" y="53" width="10" height="60" rx="5" fill="white" opacity="0.3"/><rect x="396" y="60" width="10" height="33" rx="5" fill="white" opacity="0.3"/><rect x="408" y="14" width="10" height="30" rx="5" fill="white" opacity="0.3"/><rect x="420" y="11" width="10" height="77" rx="5" fill="white" opacity="0.3"/><rect x="432" y="22" width="10" height="71" rx="5" fill="white" opacity="0.3"/><rect x="444" y="11" width="10" height="42" rx="5" fill="white" opacity="0.3"/><rect x="456" y="57" width="10" height="49" rx="5" fill="white" opacity="0.3"/><rect x="468" y="26" width="10" height="76" rx="5" fill="white" opacity="0.3"/>
</svg>