<svg xmlns="http://www.w3.org/2000/svg" width="480" height="100" viewBox="0 0 480 100">
  <rect width="480" height="100" fill="transparent"/>
  <rect x="0" y="42" width="10" height="48" rx="5" fill="white" opacity="0.3"/><rect x="12" y="60" width="10" height="65" rx="5" fill="white" opacity="0.3"/><rect x="24" y="28" width="10" height="80" rx="5" fill="white" opacity="0.3"/><rect x="36" y="19" width="10" height="64" rx="5" fill="white" opacity="0.3"/><rect x="48" y="18" width="10" height="52" rx="5" fill="white" opacity="0.3"/><rect x="60" y="23" width="10" height="68" rx="5" fill="white" opacity="0.3"/><rect x="72" y="51" width="10" height="34" rx="5" fill="white" opacity="0.3"/><rect x="84" y="21" width="10" height="54" rx="5" fill="white" opacity="0.3"/><rect x="96" y="58" width="10" height="28" rx="5" fill="white" opacity="0.3"/><rect x="108" y="22" width="10" height="20" rx="5" fill="white" opacity="0.3"/><rect x="120" y="13" width="10" height="41" rx="5" fill="white" opacity="0.3"/><rect x="132" y="12" width="10" height="23" rx="5" fill="white" opacity="0.3"/><rect x="144" y="54" width="10" height="69" rx="5" fill="white" opacity="0.3"/><rect x="156" y="48" width="10" height="68" rx="5" fill="white" opacity="0.3"/><rect x="168" y="32" width="10" height="25" rx="5" fill="white" opacity="0.3"/><rect x="180" y="26" width="10" height="62" rx="5" fill="white" opacity="0.3"/><rect x="192" y="17" width="10" height="69" rx="5" fill="white" opacity="0.3"/><rect x="204" y="23" width="10" height="35" rx="5" fill="white" opacity="0.3"/><rect x="216" y="12" width="10" height="67" rx="5" fill="white" opacity="0.3"/><rect x="228" y="48" width="10" height="71" rx="5" fill="white" opacity="0.3"/><rect x="240" y="12" width="10" height="20" rx="5" fill="white" opacity="0.3"/><rect x="252" y="19" width="10" height="22" rx="5" fill="white" opacity="0.3"/><rect x="264" y="28" width="10" height="69" rx="5" fill="white" opacity="0.3"/><rect x="276" y="36" width="10" height="54" rx="5" fill="white" opacity="0.3"/><rect x="288" y="24" width="10" height="53" rx="5" fill="white" opacity="0.3"/><rect x="300" y="13" width="10" height="54" rx="5" fill="white" opacity="0.3"/><rect x="312" y="28" width="10" height="47" rx="5" fill="white" opacity="0.3"/><rect x="324" y="36" width="10" height="64" rx="5" fill="white" opacity="0.3"/><rect x="336" y="59" width="10" height="31" rx="5" fill="white" opacity="0.3"/><rect x="348" y="44" width="10" height="54" rx="5" fill="white" opacity="0.3"/><rect x="360" y="29" width="10" height="31" rx="5" fill="white" opacity="0.3"/><rect x="372" y="27" width="10" height="38" rx="5" fill="white" opacity="0.3"/><rect x="384" y="51" width="10" height="51" rx="5" fill="white" opacity="0.3"/><rect x="396" y="37" width="10" height="46" rx="5" fill="white" opacity="0.3"/><rect x="408" y="52" width="10" height="53" rx="5" fill="white" opacity="0.3"/><rect x="420" y="55" width="10" height="60" rx="5" fill="white" opacity="0.3"/><rect x="432" y="14" width="10" height="21" rx="5" fill="white" opacity="0.3"/><rect x="444" y="60" width="10" height="74" rx="5" fill="white" opacity="0.3"/><rect x="456" y="35" width="10" height="75" rx="5" fill="white" opacity="0.3"/><rect x="468" y="50" width="10" height="49" rx="5" fill="white" opacity="0.3"/>
</svg>