<svg xmlns="http://www.w3.org/2000/svg" width="480" height="100" viewBox="0 0 480 100">
  <rect width="480" height="100" fill="transparent"/>
  <rect x="0" y="47" width="10" height="68" rx="5" fill="white" opacity="0.3"/><rect x="12" y="53" width="10" height="22" rx="5" fill="white" opacity="0.3"/><rect x="24" y="57" width="10" height="48" rx="5" fill="white" opacity="0.3"/><rect x="36" y="22" width="10" height="25" rx="5" fill="white" opacity="0.3"/><rect x="48" y="47" width="10" height="26" rx="5" fill="white" opacity="0.3"/><rect x="60" y="57" width="10" height="43" rx="5" fill="white" opacity="0.3"/><rect x="72" y="22" width="10" height="55" rx="5" fill="white" opacity="0.3"/><rect x="84" y="34" width="10" height="51" rx="5" fill="white" opacity="0.3"/><rect x="96" y="41" width="10" height="32" rx="5" fill="white" opacity="0.3"/><rect x="108" y="42" width="10" height="34" rx="5" fill="white" opacity="0.3"/><rect x="120" y="14" width="10" height="36" rx="5" fill="white" opacity="0.3"/><rect x="132" y="17" width="10" height="71" rx="5" fill="white" opacity="0.3"/><rect x="144" y="21" width="10" height="50" rx="5" fill="white" opacity="0.3"/><rect x="156" y="51" width="10" height="76" rx="5" fill="white" opacity="0.3"/><rect x="168" y="25" width="10" height="23" rx="5" fill="white" opacity="0.3"/><rect x="180" y="49" width="10" height="28" rx="5" fill="white" opacity="0.3"/><rect x="192" y="29" width="10" height="42" rx="5" fill="white" opacity="0.3"/><rect x="204" y="21" width="10" height="43" rx="5" fill="white" opacity="0.3"/><rect x="216" y="60" width="10" height="27" rx="5" fill="white" opacity="0.3"/><rect x="228" y="53" width="10" height="60" rx="5" fill="white" opacity="0.3"/><rect x="240" y="58" width="10" height="31" rx="5" fill="white" opacity="0.3"/><rect x="252" y="48" width="10" height="62" rx="5" fill="white" opacity="0.3"/><rect x="264" y="48" width="10" height="74" rx="5" fill="white" opacity="0.3"/><rect x="276" y="33" width="10" height="77" rx="5" fill="white" opacity="0.3"/><rect x="288" y="30" width="10" height="25" rx="5" fill="white" opacity="0.3"/><rect x="300" y="37" width="10" height="21" rx="5" fill="white" opacity="0.3"/><rect x="312" y="50" width="10" height="77" rx="5" fill="white" opacity="0.3"/><rect x="324" y="19" width="10" height="61" rx="5" fill="white" opacity="0.3"/><rect x="336" y="15" width="10" height="23" rx="5" fill="white" opacity="0.3"/><rect x="348" y="11" width="10" height="35" rx="5" fill="white" opacity="0.3"/><rect x="360" y="13" width="10" height="22" rx="5" fill="white" opacity="0.3"/><rect x="372" y="53" width="10" height="68" rx="5" fill="white" opacity="0.3"/><rect x="384" y="24" width="10" height="44" rx="5" fill="white" opacity="0.3"/><rect x="396" y="45" width="10" height="41" rx="5" fill="white" opacity="0.3"/><rect x="408" y="22" width="10" height="76" rx="5" fill="white" opacity="0.3"/><rect x="420" y="55" width="10" height="21" rx="5" fill="white" opacity="0.3"/><rect x="432" y="34" width="10" height="42" rx="5" fill="white" opacity="0.3"/><rect x="444" y="11" width="10" height="23" rx="5" fill="white" opacity="0.3"/><rect x="456" y="60" width="10" height="40" rx="5" fill="white" opacity="0.3"/><rect x="468" y="53" width="10" height="40" rx="5" fill="white" opacity="0.3"/>
</svg>