<svg xmlns="http://www.w3.org/2000/svg" width="480" height="100" viewBox="0 0 480 100">
  <rect width="480" height="100" fill="transparent"/>
  <rect x="0" y="55" width="10" height="78" rx="5" fill="white" opacity="0.3"/><rect x="12" y="48" width="10" height="48" rx="5" fill="white" opacity="0.3"/><rect x="24" y="30" width="10" height="33" rx="5" fill="white" opacity="0.3"/><rect x="36" y="59" width="10" height="30" rx="5" fill="white" opacity="0.3"/><rect x="48" y="35" width="10" height="68" rx="5" fill="white" opacity="0.3"/><rect x="60" y="36" width="10" height="29" rx="5" fill="white" opacity="0.3"/><rect x="72" y="49" width="10" height="71" rx="5" fill="white" opacity="0.3"/><rect x="84" y="37" width="10" height="48" rx="5" fill="white" opacity="0.3"/><rect x="96" y="60" width="10" height="52" rx="5" fill="white" opacity="0.3"/><rect x="108" y="60" width="10" height="22" rx="5" fill="white" opacity="0.3"/><rect x="120" y="41" width="10" height="36" rx="5" fill="white" opacity="0.3"/><rect x="132" y="48" width="10" height="31" rx="5" fill="white" opacity="0.3"/><rect x="144" y="15" width="10" height="24" rx="5" fill="white" opacity="0.3"/><rect x="156" y="32" width="10" height="27" rx="5" fill="white" opacity="0.3"/><rect x="168" y="11" width="10" height="33" rx="5" fill="white" opacity="0.3"/><rect x="180" y="52" width="10" height="22" rx="5" fill="white" opacity="0.3"/><rect x="192" y="34" width="10" height="40" rx="5" fill="white" opacity="0.3"/><rect x="204" y="57" width="10" height="76" rx="5" fill="white" opacity="0.3"/><rect x="216" y="15" width="10" height="46" rx="5" fill="white" opacity="0.3"/><rect x="228" y="20" width="10" height="60" rx="5" fill="white" opacity="0.3"/><rect x="240" y="34" width="10" height="68" rx="5" fill="white" opacity="0.3"/><rect x="252" y="47" width="10" height="30" rx="5" fill="white" opacity="0.3"/><rect x="264" y="29" width="10" height="26" rx="5" fill="white" opacity="0.3"/><rect x="276" y="12" width="10" height="20" rx="5" fill="white" opacity="0.3"/><rect x="288" y="50" width="10" height="32" rx="5" fill="white" opacity="0.3"/><rect x="300" y="17" width="10" height="76" rx="5" fill="white" opacity="0.3"/><rect x="312" y="55" width="10" height="33" rx="5" fill="white" opacity="0.3"/><rect x="324" y="32" width="10" height="56" rx="5" fill="white" opacity="0.3"/><rect x="336" y="10" width="10" height="80" rx="5" fill="white" opacity="0.3"/><rect x="348" y="16" width="10" height="28" rx="5" fill="white" opacity="0.3"/><rect x="360" y="14" width="10" height="72" rx="5" fill="white" opacity="0.3"/><rect x="372" y="55" width="10" height="50" rx="5" fill="white" opacity="0.3"/><rect x="384" y="49" width="10" height="23" rx="5" fill="white" opacity="0.3"/><rect x="396" y="47" width="10" height="57" rx="5" fill="white" opacity="0.3"/><rect x="408" y="25" width="10" height="71" rx="5" fill="white" opacity="0.3"/><rect x="420" y="23" width="10" height="41" rx="5" fill="white" opacity="0.3"/><rect x="432" y="26" width="10" height="60" rx="5" fill="white" opacity="0.3"/><rect x="444" y="57" width="10" height="46" rx="5" fill="white" opacity="0.3"/><rect x="456" y="13" width="10" height="46" rx="5" fill="white" opacity="0.3"/><rect x="468" y="20" width="10" height="67" rx="5" fill="white" opacity="0.3"/>
</svg>